<svg xmlns="http://www.w3.org/2000/svg" xml:space="preserve" viewBox="0 0 32 32" id="pencil">
  <path d="M22.883 3.8c-.39.001-.776.142-1.059.425l-1.4 1.4-1.428 1.428L6.266 19.78c-.027.027-.04.06-.06.092a.496.496 0 0 0-.24.29L4.024 26.35a.502.502 0 0 0 .631.627l6.274-2.034a.494.494 0 0 0 .236-.173c.017-.013.037-.02.053-.036l12.728-12.728 2.828-2.83a1.504 1.504 0 0 0 0-2.123l-2.828-2.828a1.497 1.497 0 0 0-1.062-.424zm0 .991c.13 0 .26.046.355.14l2.828 2.829a.5.5 0 0 1 0 .707L25.02 9.514l-3.536-3.535 1.047-1.047a.492.492 0 0 1 .352-.141zm-2.106 1.895 3.535 3.535-.72.722-1.768-1.77-1.77-1.765.723-.722zm-1.43 1.43.708.706L8.584 20.293l-1.15-.266L19.348 8.115zm1.415 1.413.355.354.354.353L10 21.706l-.758.03v-.687l11.52-11.52zm1.414 1.414.707.707-11.836 11.836-.28-1.136 11.409-11.407zM6.78 20.903l1.461.337v1.016a.5.5 0 0 0 .52.5l1.064-.043.352 1.42-2.37.767a.478.478 0 0 0-.113-.183l-1.414-1.414a.487.487 0 0 0-.215-.121l.715-2.28zM5.75 24.185l1.045 1.044-1.53.495.485-1.54z"></path>
</svg>
