<svg xmlns="http://www.w3.org/2000/svg" viewBox="0 0 512 512" id="scissor">
  <path d="M479.127,371.45151A99.76989,99.76989,0,0,0,355.54443,319.9183H355.544a99.08848,99.08848,0,0,0-27.65772,15.13184l-10.49371-25.85059c-.03174-.08008-.06256-.16015-.097-.23926l-22.43768-55.27441L363.64551,84.23276A64.09114,64.09114,0,0,0,327.97412.54233,7.50033,7.50033,0,0,0,318.22705,4.68l-62.22357,153.29L193.77734,4.679A7.49708,7.49708,0,0,0,184.02979.54233,64.18927,64.18927,0,0,0,148.355,84.23764l68.78687,169.45312-22.4488,55.29541c-.02331.0542-.04419.10889-.06628.16358l-10.51544,25.90136A99.71068,99.71068,0,0,0,32.87354,371.45346,98.76134,98.76134,0,0,0,85.79785,504.77963a99.5011,99.5011,0,0,0,127.67041-50.88184,7.44759,7.44759,0,0,0,.57666-1.13378l25.25-62.17969c.03076-.07617.06055-.15235.08838-.22949L255.998,349.41049l16.71734,41.18262c.01819.04443.03528.08935.05438.13379l25.18146,62.0332a7.41453,7.41453,0,0,0,.59229,1.15723A99.262,99.262,0,1,0,479.127,371.45151ZM329.105,17.763a49.06333,49.06333,0,0,1,20.64209,60.82715L286.76343,233.74594l-22.66535-55.835Zm-128.5791,428.4248a7.492,7.492,0,0,0-.34912.69043A84.49553,84.49553,0,0,1,91.39453,490.86361a83.76234,83.76234,0,0,1-44.915-113.09472c18.1211-39.04981,64.21582-58.252,104.93653-43.72363a83.96718,83.96718,0,0,1,30.477,18.92871,7.50033,7.50033,0,0,0,12.17285-2.56153l7.51172-18.50342,22.67321,55.8545Zm31.816-78.373L209.6723,311.96908l15.56385-38.33838,22.66619,55.83692Zm30.56378-41.26807-.00061-.00146L162.25342,78.59506a49.17962,49.17962,0,0,1,20.646-60.833l66.07038,162.76123c.06134.166.12658.33008.19946.49121l53.15912,130.95508-22.67,55.84668ZM467.48,443.79916a83.38417,83.38417,0,0,1-46.87842,47.06445,84.49319,84.49319,0,0,1-108.7749-43.98437,7.40406,7.40406,0,0,0-.36572-.71875l-23.70807-58.40381,22.67-55.84668,7.51074,18.50244a7.50005,7.50005,0,0,0,12.17334,2.56055,83.93448,83.93448,0,0,1,30.47754-18.92773c40.72119-14.5254,86.814,4.67773,104.937,43.7207A82.923,82.923,0,0,1,467.48,443.79916ZM373.1582,373.98959a42.12016,42.12016,0,0,0-23.38037,54.86817,42.38219,42.38219,0,0,0,55.04932,23.27636A42.12047,42.12047,0,0,0,428.208,397.265,42.4063,42.4063,0,0,0,373.1582,373.98959Zm40.97266,49.61328a27.03358,27.03358,0,0,1-14.90039,14.61524,27.38283,27.38283,0,0,1-35.5542-15.00293,27.12067,27.12067,0,0,1,15.07861-35.30957,27.37884,27.37884,0,0,1,35.55469,15.00195A26.80618,26.80618,0,0,1,414.13086,423.60287ZM264.65631,267.61166a7.5,7.5,0,1,0,7.5,7.5A7.50006,7.50006,0,0,0,264.65631,267.61166ZM138.84277,373.98959A42.40518,42.40518,0,0,0,83.793,397.265a42.12074,42.12074,0,0,0,23.38037,54.86914l.00049.001a42.385,42.385,0,0,0,55.04931-23.27734,42.12034,42.12034,0,0,0-23.38037-54.86817Zm9.48194,49.22559a27.37731,27.37731,0,0,1-35.55518,15.002l.00049.001a27.1213,27.1213,0,0,1-15.07861-35.31055,27.38316,27.38316,0,0,1,35.55468-15.00195,27.12066,27.12066,0,0,1,15.07862,35.30957Z"></path>
</svg>
