<svg xmlns="http://www.w3.org/2000/svg" width="16" height="16" id="shield">
  <path d="M2.66 1a.5.5 0 0 0-.469.438c-.389 3.079-.223 5.587.663 7.794.885 2.208 2.482 4.082 4.857 5.924a.5.5 0 0 0 .613 0c2.377-1.843 3.948-3.728 4.82-5.937.873-2.21 1.036-4.713.698-7.774a.5.5 0 0 0-.754-.373c-1.872 1.13-3.589 1.095-4.736.057a.5.5 0 0 0-.67 0c-1.148 1.039-2.863 1.073-4.735-.057A.5.5 0 0 0 2.66 1zm5.356 1.074c1.32.972 3.091.889 4.85.078.233 2.658.083 4.84-.651 6.7-.75 1.9-2.126 3.549-4.2 5.222-2.076-1.673-3.473-3.32-4.234-5.215-.745-1.857-.893-4.037-.619-6.709 1.76.813 3.532.896 4.854-.076zM10.232 6a.5.5 0 0 0-.343.152L7.25 8.791 6.111 7.652a.5.5 0 1 0-.707.707l1.492 1.495a.5.5 0 0 0 .71 0l2.99-2.997A.5.5 0 0 0 10.232 6z" color="#000" font-family="sans-serif" font-weight="400" overflow="visible" style="line-height:normal;text-indent:0;text-align:start;text-decoration-line:none;text-decoration-style:solid;text-decoration-color:#000;text-transform:none;block-progression:tb;white-space:normal;isolation:auto;mix-blend-mode:normal;solid-color:#000;solid-opacity:1"></path>
</svg>
