<svg xmlns="http://www.w3.org/2000/svg" xml:space="preserve" id="video" width="72" height="72" x="0" y="0" version="1.1" viewBox="0 0 72 72">
  <path d="M16.86 27.69c6.848 0 12.418-5.569 12.418-12.416S23.708 2.857 16.86 2.857c-6.846 0-12.416 5.57-12.416 12.417 0 6.847 5.569 12.416 12.416 12.416zm0-20.833c4.642 0 8.418 3.776 8.418 8.417s-3.776 8.416-8.418 8.416c-4.641 0-8.416-3.775-8.416-8.416 0-4.642 3.775-8.417 8.416-8.417z"></path>
  <path d="m12.355 15.275-.005-.267c-.004-.114-.004-.114.021-.245a1.002 1.002 0 0 0-.794-1.171 1.006 1.006 0 0 0-1.171.794 2.6 2.6 0 0 0-.056.688l.004.2a1.001 1.001 0 0 0 2.001.001zM12.283 13.211a.998.998 0 0 0 .832-.444 4.501 4.501 0 0 1 3.745-2 1 1 0 1 0 0-2 6.499 6.499 0 0 0-5.407 2.887 1.001 1.001 0 0 0 .83 1.557zM44.859 27.69c6.849 0 12.418-5.569 12.418-12.416S51.708 2.857 44.859 2.857c-6.846 0-12.416 5.57-12.416 12.417.001 6.847 5.571 12.416 12.416 12.416zm0-20.833c4.643 0 8.418 3.776 8.418 8.417s-3.775 8.416-8.418 8.416c-4.641 0-8.416-3.775-8.416-8.416.001-4.642 3.776-8.417 8.416-8.417z"></path>
  <path d="M40.283 13.211a.998.998 0 0 0 .832-.444 4.5 4.5 0 0 1 3.744-2c.554 0 1-.447 1-1 0-.553-.446-1-1-1a6.497 6.497 0 0 0-5.406 2.887 1 1 0 0 0 .83 1.557zM68.854 32.122c-.655-.67-1.472-1.029-2.467-1.029-.809 0-1.681.217-2.74.729a1268.62 1268.62 0 0 1-10.582 5.577l.049-.75c.004-.049.006-.196.006-.246 0-3.891-3.11-7.26-6.932-7.26H9.05c-3.758 0-7.051 3.696-7.051 7.589V62.87c0 3.745 3.164 6.272 7.051 6.272h37.138c3.856 0 6.879-2.747 6.928-6.519-.001.004-.001.009-.002.002l-.104-1.664c2.657 1.332 6.785 3.472 10.613 5.488.109.058.209.108.328.146 1.041.32 1.87.54 2.669.545 1.425-.011 2.29-.708 2.71-1.289.498-.687.67-1.576.67-2.779V36.06c0-.797.102-2.672-1.146-3.938zm-2.735 30.907c-.279-.066-.577-.159-.785-.223-13.452-7.082-13.92-7.094-14.514-7.094-.551 0-1.078.202-1.457.604-.377.4-.572.889-.539 1.439l.295 4.836c-.029 1.549-1.307 2.551-2.932 2.551H9.05c-1.698 0-3.051-.72-3.051-2.272V36.732c0-1.694 1.489-3.589 3.051-3.589v-.001h37.138c1.569 0 2.897 1.568 2.931 3.197l-.293 4.319c-.039.553.153 1.1.53 1.506.379.406.91.637 1.465.637.652 0 .826-.002 14.637-7.389.273-.132.48-.208.63-.252.024.179.04.442.034.835l-.003 27.034z"></path>
  <path d="m53.115 62.624.003-.061c0 .021-.003.041-.003.061zM66.65 67.143l-.03-.002-.031.002h.061zM53.118 62.563l.001-.023-.001.023zM20.118 35.142h-8.494c-2.007 0-3.625 2.475-3.625 4.325v5.082a1 1 0 1 0 2-.001v-5.082c0-.931.894-2.323 1.625-2.323h8.494a1 1 0 1 0 0-2.001zM25.118 35.143h-1a1 1 0 1 0 0 2h1a1 1 0 1 0 0-2z"></path>
</svg>
